<svg width="170" height="32" viewBox="0 0 170 32" fill="none" xmlns="http://www.w3.org/2000/svg">
<path d="M13.45 13.5189L13.4177 18.5834C13.4177 19.5834 13.3855 20.4866 13.2888 21.293C13.9659 21.2285 14.643 21.1963 15.2879 21.1963V23.5511H9.45168C9.41944 23.293 9.35495 22.8092 9.32271 22.1318H9.29046C8.03294 23.4221 6.51745 24.035 4.71178 24.035C3.422 24.035 2.39019 23.6479 1.64857 22.8737C0.906951 22.1318 0.52002 21.164 0.52002 19.9705C0.52002 18.164 1.35837 16.7769 3.06732 15.8414C4.74402 14.906 6.77541 14.3898 9.16148 14.2931V12.6801C9.16148 10.8092 8.45211 9.8737 7.06561 9.8737C6.16277 9.8737 5.42115 10.164 4.84075 10.7447C5.09871 11.035 5.22768 11.4221 5.22768 11.906C5.22768 12.3898 5.06646 12.8414 4.71178 13.2285C4.35709 13.6156 3.87342 13.8092 3.19629 13.8092C2.58365 13.8092 2.09999 13.6156 1.7453 13.1963C1.39061 12.8092 1.22939 12.2931 1.22939 11.6801C1.22939 10.8737 1.51959 10.164 2.09999 9.55112C2.68039 8.93821 3.45425 8.45434 4.45382 8.0995C5.45339 7.74466 6.5497 7.58337 7.74274 7.58337C11.5476 7.61563 13.45 9.58337 13.45 13.5189ZM6.09828 17.3898C5.29217 17.8737 4.90524 18.5511 4.90524 19.3898C4.90524 19.9382 5.06646 20.3576 5.42115 20.6156C5.77584 20.8737 6.16277 21.0027 6.67868 21.0027C7.61376 21.0027 8.41987 20.6156 9.12924 19.8737V16.4543C7.90396 16.5834 6.90439 16.906 6.09828 17.3898Z" fill="black"/>
<path d="M30.4104 8.58337C31.3455 9.22854 32.0871 10.1318 32.6031 11.3253C33.119 12.5189 33.3769 13.8737 33.3769 15.4543C33.3769 17.0995 33.0545 18.5834 32.4096 19.906C31.7647 21.2285 30.8619 22.2285 29.7011 22.9705C28.5403 23.7124 27.186 24.0995 25.7028 24.0995C24.8967 24.0995 23.9938 23.906 22.962 23.5511V26.5189C22.962 27.3898 22.9298 28.3253 22.8653 29.2285C23.5102 29.164 24.1551 29.1318 24.8322 29.1318V31.4866H16.7389V29.4866C17.5127 29.4866 18.0286 29.2608 18.2544 28.8414C18.4801 28.4221 18.609 27.7124 18.609 26.7447V13.6156C18.609 12.6801 18.6413 11.8092 18.738 10.9705L16.5454 11.0672V8.71241C17.8352 8.71241 18.8992 8.61563 19.7053 8.42208C20.5115 8.22854 21.0596 8.03499 21.3176 7.77692H22.833C22.8653 8.13176 22.9298 8.61563 22.9943 9.26079H23.0265C24.3163 8.13176 25.6705 7.58337 27.186 7.58337C28.3791 7.61563 29.4754 7.93821 30.4104 8.58337ZM24.0906 10.7769C23.6391 11.035 23.2522 11.3576 22.962 11.7769V21.2285C23.1555 21.3576 23.4779 21.4866 23.8649 21.6156C24.2518 21.7447 24.671 21.7769 25.0901 21.7769C27.5729 21.7769 28.8305 19.8414 28.8305 15.9382C28.8305 14.4221 28.5725 13.0995 28.0244 12.035C27.4762 10.9705 26.6701 10.4221 25.5738 10.4221C25.0579 10.3898 24.5742 10.5189 24.0906 10.7769Z" fill="black"/>
<path d="M41.8572 18.5833C41.8572 19.5833 41.8249 20.4866 41.7282 21.293C42.3731 21.2285 43.0502 21.1962 43.7273 21.1962V23.5511H35.634V21.5511C36.4079 21.5511 36.9238 21.3253 37.1495 20.9059C37.3752 20.4866 37.4719 19.7769 37.4719 18.8091V13.6801C37.4719 12.7124 37.5042 11.8091 37.6009 11.0027L35.4406 11.0995V8.74463C36.7303 8.74463 37.7944 8.64786 38.6005 8.45431C39.4066 8.26076 39.9547 8.06721 40.2127 7.80915H41.8894V18.5833H41.8572ZM41.6315 0.712377C42.0829 1.19625 42.3086 1.80915 42.3086 2.55109C42.3086 3.26076 42.0829 3.87367 41.6637 4.35754C41.2445 4.84141 40.6964 5.06721 40.0192 5.06721C39.3099 5.06721 38.7295 4.80915 38.278 4.32528C37.8266 3.84141 37.6009 3.22851 37.6009 2.55109C37.6009 1.84141 37.8266 1.26076 38.3103 0.744635C38.794 0.228506 39.3421 0.00269934 39.987 0.00269934C40.6319 -0.0295587 41.18 0.228506 41.6315 0.712377Z" fill="black"/>
<path d="M57.2699 2.26078L56.5283 2.22852C55.7867 2.22852 55.2063 2.32529 54.7871 2.51884C54.3679 2.71239 54.0777 3.09949 53.852 3.64787C53.6586 4.19626 53.5296 4.97046 53.5296 6.00271C53.5296 6.42207 53.5941 7.26078 53.7231 8.51884C53.7553 8.71239 53.8198 9.06723 53.852 9.58336C53.8843 9.71239 53.8843 9.9382 53.8843 10.1963C53.8843 11.6479 53.4006 12.8737 52.4333 13.8092C51.466 14.7447 50.2084 15.293 48.6607 15.4221V15.4543C50.2729 15.6156 51.5949 16.2285 52.5623 17.293C53.5296 18.3576 53.981 19.6801 53.852 21.293L53.7231 22.8092C53.5941 24.0995 53.4974 25.0995 53.4974 25.7447C53.4974 26.9059 53.6263 27.7769 53.8843 28.3576C54.1422 28.9382 54.5292 29.3253 55.0451 29.5188C55.561 29.7124 56.3026 29.7769 57.2377 29.7447V31.9382H56.3671C51.6917 31.9382 49.3378 29.7447 49.3378 25.3253C49.3378 24.8737 49.3701 24.293 49.4023 23.6156C49.4346 22.9382 49.4668 22.4543 49.4991 22.164C49.5958 21.0027 49.6603 20.035 49.6603 19.3576C49.6603 18.293 49.4346 17.5511 49.0154 17.1317C48.5962 16.7124 47.8224 16.5188 46.6938 16.5188H45.9844V14.3253H46.6938C47.8546 14.3253 48.6285 14.1317 49.0476 13.7769C49.4668 13.3898 49.6603 12.6801 49.6603 11.6479C49.6603 10.9382 49.5958 10.1317 49.4991 9.19626C49.4668 9.00272 49.4346 8.58336 49.4023 8.03497C49.3701 7.45433 49.3378 6.9382 49.3378 6.45433C49.3378 4.29304 49.9182 2.68013 51.079 1.64787C52.2398 0.615616 53.981 0.0994873 56.3671 0.0994873H57.2377V2.26078H57.2699Z" fill="black"/>
<path d="M68.5554 8.19626C69.4583 8.58336 70.1354 9.09949 70.5868 9.74465C71.0383 10.3898 71.264 11.0995 71.264 11.8414C71.264 12.4866 71.0705 13.035 70.6836 13.4866C70.2966 13.9382 69.7807 14.164 69.1358 14.164C68.4587 14.164 67.9428 13.9705 67.6204 13.5511C67.2657 13.1317 67.1045 12.6801 67.1045 12.164C67.1045 11.6801 67.2334 11.2285 67.4914 10.8092C67.2979 10.4221 67.0077 10.164 66.5885 10.035C66.1694 9.87368 65.7502 9.80917 65.3633 9.80917C64.2992 9.80917 63.4609 10.293 62.816 11.2608C62.1711 12.2285 61.8486 13.5834 61.8486 15.3253C61.8486 17.0672 62.2033 18.5188 62.8805 19.6479C63.5576 20.7769 64.6216 21.3576 66.1049 21.3576C66.9432 21.3576 67.7493 21.1317 68.5554 20.7124C69.3616 20.293 70.0387 19.7124 70.5868 18.9705L72.0056 20.3576C70.9738 21.7769 69.8775 22.7447 68.6844 23.293C67.5236 23.8414 66.2661 24.0995 64.9441 24.0995C63.5576 24.0995 62.2678 23.7769 61.107 23.164C59.9462 22.5511 59.0434 21.6156 58.3663 20.4543C57.6891 19.2608 57.3344 17.8737 57.3344 16.2285C57.3344 14.6801 57.6891 13.2608 58.3663 11.9382C59.0434 10.6156 60.0107 9.58336 61.236 8.80917C62.4613 8.03497 63.8478 7.64788 65.3955 7.64788C66.5885 7.61562 67.6849 7.80917 68.5554 8.19626Z" fill="black"/>
<path d="M86.2575 8.26079C86.7735 8.68015 86.9992 9.32531 86.9992 10.164C86.9992 10.7124 86.838 11.1963 86.4833 11.6479C86.1286 12.0995 85.6127 12.3253 84.9033 12.3253C84.3874 12.3253 83.936 12.1963 83.5168 11.9382C83.1299 11.6801 82.8719 11.1963 82.8074 10.5511C82.227 10.5511 81.6466 10.8737 81.034 11.5511C80.4213 12.2285 80.0344 12.8737 79.8087 13.5511V18.5834C79.8087 19.5834 79.7765 20.4866 79.6797 21.293C80.3246 21.2285 81.0017 21.1963 81.6789 21.1963V23.5511H73.5856V21.5511C74.3594 21.5511 74.8753 21.3253 75.101 20.906C75.3267 20.4866 75.4235 19.7769 75.4235 18.8092V13.6156C75.4235 12.6801 75.4557 11.8092 75.5525 10.9705L73.3921 11.0672V8.71241C74.6819 8.71241 75.7459 8.61563 76.552 8.42208C77.3581 8.22854 77.9063 8.03499 78.1642 7.77692H79.6797C79.712 8.0995 79.7442 8.4866 79.7765 8.97047C79.8087 9.45434 79.8087 9.93821 79.8087 10.4221H79.8732C81.2597 8.51886 82.7752 7.58337 84.3229 7.58337C85.0968 7.61563 85.7416 7.84144 86.2575 8.26079Z" fill="black"/>
<path d="M100.896 13.5188L100.864 18.5833C100.864 19.5833 100.832 20.4865 100.735 21.293C101.412 21.2285 102.089 21.1962 102.734 21.1962V23.5511H96.8982C96.8659 23.293 96.8014 22.8091 96.7692 22.1317H96.7369C95.4794 23.422 93.9639 24.0349 92.1582 24.0349C90.8685 24.0349 89.8367 23.6478 89.095 22.8736C88.3534 22.0994 87.9665 21.0994 87.9665 19.9059C87.9665 18.0994 88.8048 16.7123 90.5138 15.7769C92.1905 14.8414 94.2219 14.3252 96.608 14.2285V12.6156C96.608 10.7446 95.8986 9.80912 94.5121 9.80912C93.6092 9.80912 92.8676 10.0994 92.2872 10.6801C92.5452 10.9704 92.6741 11.3575 92.6741 11.8414C92.6741 12.3252 92.5129 12.7769 92.1582 13.164C91.8036 13.5511 91.3199 13.7446 90.6428 13.7446C90.0301 13.7446 89.5465 13.5511 89.1918 13.1317C88.8371 12.7446 88.6759 12.2285 88.6759 11.6156C88.6759 10.8091 88.9661 10.0994 89.5465 9.48654C90.1269 8.87364 90.9007 8.38977 91.9003 8.03493C92.8999 7.68009 93.9962 7.5188 95.1892 7.5188C98.994 7.61557 100.896 9.58331 100.896 13.5188ZM93.5447 17.3898C92.7386 17.8736 92.3517 18.5511 92.3517 19.3898C92.3517 19.9382 92.5129 20.3575 92.8676 20.6156C93.2223 20.8736 93.6092 21.0027 94.1251 21.0027C95.0602 21.0027 95.8663 20.6156 96.5757 19.8736V16.4543C95.3504 16.5833 94.3509 16.9059 93.5447 17.3898Z" fill="black"/>
<path d="M115.471 1.03497C116.116 1.58335 116.438 2.19626 116.438 2.93819C116.438 3.51884 116.277 4.00271 115.922 4.42206C115.568 4.80916 115.084 5.03497 114.471 5.03497C113.891 5.03497 113.439 4.87368 113.117 4.5511C112.795 4.22852 112.633 3.80916 112.633 3.29303C112.633 3.03497 112.666 2.80916 112.698 2.68013C112.537 2.51884 112.311 2.42206 111.988 2.42206C111.15 2.45432 110.763 3.06723 110.763 4.32529V8.13174H114.213V10.5188L110.795 10.6156L110.828 18.5511C110.828 19.5834 110.795 20.5188 110.699 21.3253C111.376 21.2608 112.085 21.2285 112.859 21.2285V23.5834H104.605V21.5834C105.378 21.5834 105.894 21.3575 106.12 20.9382C106.346 20.5188 106.475 19.8092 106.475 18.8414V10.6479L104.218 10.6801V8.09948H106.475V7.19626C106.475 4.7769 106.991 3.00271 108.055 1.90594C109.119 0.776903 110.602 0.228516 112.537 0.228516C113.826 0.228516 114.826 0.48658 115.471 1.03497Z" fill="black"/>
<path d="M121.694 8.09948H125.628V10.4866L121.694 10.5834L121.662 18.1963C121.662 20.1963 122.274 21.1963 123.532 21.1963C124.531 21.1963 125.467 20.5834 126.337 19.3253L127.82 20.7124C126.853 22.1317 125.886 23.035 124.918 23.4543C123.951 23.8414 123.016 24.0672 122.081 24.0672C118.856 24.0672 117.244 22.0995 117.244 18.1317L117.309 10.6801H115.213V8.09948C115.858 8.09948 116.503 7.90593 117.083 7.48658C117.663 7.06722 118.179 6.58335 118.599 5.97045C119.018 5.35755 119.308 4.80916 119.469 4.22852H121.758L121.694 8.09948Z" fill="black"/>
<path d="M141.105 9.38982C142.427 10.5511 143.104 12.5188 143.072 15.2608L132.947 15.4543C132.947 17.2608 133.302 18.7124 133.979 19.7447C134.656 20.8092 135.785 21.3253 137.3 21.3253C138.01 21.3253 138.783 21.1318 139.622 20.7769C140.46 20.3898 141.202 19.8092 141.847 19.0027L143.233 20.293C141.492 22.8092 139.074 24.0672 136.043 24.0672C134.527 24.0672 133.205 23.7447 132.044 23.0672C130.884 22.3898 129.981 21.4543 129.368 20.1963C128.723 18.9705 128.401 17.5189 128.401 15.8737C128.401 14.4221 128.723 13.0672 129.368 11.8092C130.013 10.5511 130.916 9.51885 132.109 8.77691C133.27 8.00272 134.624 7.64788 136.139 7.64788C138.106 7.61562 139.783 8.19627 141.105 9.38982ZM134.173 10.7124C133.657 11.3576 133.302 12.1963 133.141 13.2608H138.816C138.751 10.9382 137.913 9.77691 136.268 9.77691C135.398 9.77691 134.688 10.0995 134.173 10.7124Z" fill="black"/>
<path d="M157.969 8.26079C158.485 8.68015 158.743 9.32531 158.743 10.164C158.743 10.7124 158.581 11.1963 158.227 11.6479C157.872 12.0995 157.356 12.3253 156.647 12.3253C156.131 12.3253 155.679 12.1963 155.26 11.9382C154.873 11.6801 154.615 11.1963 154.551 10.5511C153.971 10.5511 153.39 10.8737 152.778 11.5511C152.165 12.2285 151.746 12.8737 151.552 13.5511V18.5834C151.552 19.5834 151.52 20.4866 151.423 21.293C152.068 21.2285 152.745 21.1963 153.422 21.1963V23.5511H145.329V21.5511C146.103 21.5511 146.619 21.3253 146.845 20.906C147.07 20.4866 147.167 19.7769 147.167 18.8092V13.6156C147.167 12.6801 147.199 11.8092 147.296 10.9705L145.136 11.0672V8.71241C146.425 8.71241 147.489 8.61563 148.296 8.42208C149.102 8.22854 149.65 8.03499 149.908 7.77692H151.423C151.455 8.0995 151.488 8.4866 151.52 8.97047C151.552 9.45434 151.552 9.93821 151.552 10.4221H151.617C153.003 8.51886 154.519 7.58337 156.066 7.58337C156.808 7.61563 157.453 7.84144 157.969 8.26079Z" fill="black"/>
<path d="M159.097 0.0672607C161.483 0.0672607 163.225 0.58339 164.385 1.61565C165.546 2.64791 166.127 4.26081 166.127 6.4221C166.127 6.90597 166.094 7.4221 166.062 8.00275C166.03 8.58339 165.998 8.97049 165.965 9.16404C165.869 10.0995 165.804 10.906 165.804 11.6156C165.804 12.6802 165.998 13.3898 166.417 13.7447C166.836 14.1318 167.61 14.2931 168.771 14.2931H169.48V16.4866H168.771C167.642 16.4866 166.868 16.6802 166.449 17.0995C166.03 17.5189 165.804 18.2608 165.804 19.3253C165.804 20.035 165.869 20.9705 165.965 22.1318C165.998 22.3898 166.03 22.8737 166.062 23.5834C166.094 24.2608 166.127 24.8415 166.127 25.2931C166.127 29.7124 163.773 31.906 159.097 31.906H158.227V29.7124C159.162 29.7447 159.871 29.6802 160.419 29.4866C160.935 29.2931 161.322 28.906 161.58 28.3253C161.838 27.7447 161.967 26.8737 161.967 25.7124C161.967 25.0673 161.903 24.0673 161.741 22.7769L161.612 21.2608C161.483 19.6479 161.903 18.3253 162.902 17.2608C163.87 16.1963 165.192 15.5834 166.804 15.4221V15.3576C165.256 15.2286 163.998 14.6802 163.031 13.7447C162.064 12.8092 161.58 11.6157 161.58 10.1318C161.58 9.87371 161.58 9.64791 161.612 9.51888C161.645 9.035 161.709 8.68017 161.741 8.45436C161.87 7.22855 161.935 6.38984 161.935 5.93823C161.935 4.90597 161.838 4.13178 161.612 3.58339C161.419 3.035 161.097 2.68016 160.677 2.45436C160.258 2.26081 159.678 2.16404 158.936 2.16404L158.195 2.19629V0.0672607H159.097Z" fill="black"/>
</svg>
