<svg width="56" height="56" viewBox="0 0 56 56" fill="none" xmlns="http://www.w3.org/2000/svg">
    <path d="M28 0C12.4688 0 0 12.5781 0 28C0 43.5312 12.4688 56 28 56C43.4219 56 56 43.5312 56 28C56 12.5781 43.4219 0 28 0ZM41.7812 27.0156C41.5625 27.6719 40.9062 28 40.25 28H33.25V38.5C33.25 40.4688 31.6094 42 29.75 42H26.25C24.2812 42 22.75 40.4688 22.75 38.5V28H15.75C14.9844 28 14.3281 27.6719 14.1094 27.0156C13.7812 26.3594 14 25.5938 14.4375 25.0469L26.6875 12.7969C27.3438 12.1406 28.5469 12.1406 29.2031 12.7969L41.4531 25.0469C41.8906 25.5938 42.1094 26.3594 41.7812 27.0156Z" fill="white"/>
</svg>
