<svg width="120" height="48" viewBox="0 0 120 48" fill="none" xmlns="http://www.w3.org/2000/svg">
<path d="M120 48H0V0H120V48ZM97.728 27.024V33.144L90.816 33.216V39.48L97.836 39.408L104.712 33.144V12.48H91.6442L83.8322 19.608V31.4522H92.9042L97.7282 27.0247L97.728 27.024ZM45.168 33.036V39.408H51.468L59.0638 32.496V12.48H52.08V25.116H45.168V12.48H38.184V31.4522H47.256L52.08 27.0242V33.0362L45.168 33.036ZM68.856 12.48L61.008 19.5722V37.752H67.992V31.452H74.112L81.888 24.3598V12.48H68.856ZM29.256 27.06V31.452H36.24V12.48H23.208L15.36 19.608V31.4522H24.432L29.256 27.0602V27.06ZM97.728 25.116H90.816V18.816H97.728V25.1158V25.116ZM74.904 25.116H67.992V18.816H74.904V25.1158V25.116ZM29.256 25.116H22.344V18.816H29.256V25.1158V25.116Z" fill="black"/>
</svg>
