<svg width="59" height="16" viewBox="0 0 59 16" fill="none" xmlns="http://www.w3.org/2000/svg">
<path d="M7.90625 6.71875L6.875 7.28125C6.59375 6.65625 6.09375 6.65625 6.03125 6.65625C5.34375 6.65625 4.96875 7.09375 4.96875 8.03125C4.96875 8.75 5.28125 9.375 6.03125 9.375C6.46875 9.375 6.78125 9.15625 6.96875 8.71875L7.9375 9.21875C7.75 9.5625 7.125 10.4375 5.90625 10.4375C5.1875 10.4375 3.59375 10.0938 3.59375 8.03125C3.59375 6.1875 4.9375 5.625 5.84375 5.625C6.8125 5.59375 7.5 5.96875 7.90625 6.71875ZM12.375 6.71875L11.375 7.28125C11.0625 6.65625 10.5625 6.65625 10.5 6.65625C9.8125 6.65625 9.4375 7.09375 9.4375 8.03125C9.4375 8.75 9.75 9.375 10.5 9.375C10.9375 9.375 11.25 9.15625 11.4375 8.71875L12.4062 9.21875C12.3438 9.3125 11.75 10.4375 10.375 10.4375C9.65625 10.4375 8.0625 10.125 8.0625 8.03125C8.0625 6.1875 9.40625 5.625 10.3438 5.625C11.3125 5.59375 11.9688 5.96875 12.375 6.71875ZM7.96875 0.28125C3.5 0.28125 0.25 3.875 0.25 8.03125C0.25 12.3438 3.78125 15.7812 7.96875 15.7812C12.0312 15.7812 15.75 12.625 15.75 8.03125C15.75 3.71875 12.4062 0.28125 7.96875 0.28125ZM8 14.3438C4.46875 14.3438 1.625 11.4375 1.625 8.03125C1.625 4.71875 4.3125 1.65625 8 1.65625C11.5 1.65625 14.3438 4.46875 14.3438 8.03125C14.3438 11.8125 11.2188 14.3438 8 14.3438ZM31.5625 6.09375V9.25H30.6875V13.0312H28.2812V9.25H27.4062V6.09375C27.4062 5.9375 27.4375 5.84375 27.5312 5.75C27.625 5.625 27.75 5.59375 27.9062 5.59375H31.0938C31.2188 5.59375 31.3125 5.625 31.4375 5.75C31.5312 5.84375 31.5625 5.9375 31.5625 6.09375ZM28.4062 4.09375C28.4062 3.375 28.75 3 29.4688 3C30.1875 3 30.5625 3.375 30.5625 4.09375C30.5625 4.8125 30.1875 5.1875 29.4688 5.1875C28.75 5.1875 28.4062 4.8125 28.4062 4.09375ZM29.4688 0.25C33.9062 0.25 37.25 3.71875 37.25 8C37.25 12.625 33.5312 15.75 29.4688 15.75C25.2812 15.75 21.75 12.3438 21.75 8C21.75 3.875 25 0.25 29.4688 0.25ZM29.5 1.65625C25.8125 1.65625 23.125 4.71875 23.125 8C23.125 11.4375 25.9688 14.3438 29.5 14.3438C32.7188 14.3438 35.8438 11.8125 35.8438 8C35.8438 4.46875 33.0312 1.65625 29.5 1.65625ZM50.9688 0.25C55.4062 0.25 58.75 3.71875 58.75 8C58.75 12.625 55.0312 15.75 50.9688 15.75C46.7812 15.75 43.25 12.3438 43.25 8C43.25 3.875 46.5 0.25 50.9688 0.25ZM51 1.65625C47.3125 1.65625 44.625 4.71875 44.625 8C44.625 11.4375 47.4688 14.3438 51 14.3438C54.2188 14.3438 57.3438 11.8125 57.3438 8C57.3438 4.46875 54.5312 1.65625 51 1.65625ZM47.5312 6.90625C47.9375 4.3125 50.0625 3.9375 50.9375 3.9375C54.0625 3.9375 54.9375 6.5 54.9375 8.125C54.9375 10.125 53.6562 12.2812 50.9062 12.2812C49.6875 12.2812 47.8125 11.6562 47.4688 9.25H49.4375C49.4688 10.1875 50.0312 10.6562 51.125 10.6562C51.875 10.6562 52.9375 10.0938 52.9375 8.0625C52.9375 5.5 51.4062 5.5625 51.1875 5.5625C50.1562 5.5625 49.5625 6 49.4375 6.90625H50L48.4688 8.46875L46.9375 6.90625H47.5312Z" fill="white"/>
</svg>
