<svg width="187" height="32" viewBox="0 0 187 32" fill="none" xmlns="http://www.w3.org/2000/svg">
<path d="M7.15544 24.0855C5.99539 24.1084 4.85642 23.7724 3.89311 23.1233C2.91949 22.438 2.15842 21.4907 1.69751 20.3905C1.14515 19.0752 0.876454 17.6574 0.909102 16.2305C0.880684 14.6871 1.20881 13.158 1.86775 11.7633C2.46381 10.509 3.39509 9.44554 4.55782 8.69126C5.76022 7.93259 7.1577 7.54412 8.57762 7.57382C9.08221 7.56786 9.58556 7.62516 10.076 7.74438C10.4997 7.85211 10.9177 7.98156 11.3283 8.13222V6.08422C11.3283 5.79451 11.3389 5.38065 11.3601 4.84262C11.3814 4.30459 11.4123 3.80795 11.4529 3.3527C11.1231 3.37403 10.7314 3.39473 10.2778 3.41478C9.82425 3.43483 9.4842 3.4455 9.25763 3.44678V1.08806C10.0695 1.09867 10.881 1.04679 11.685 0.93286C12.2113 0.859803 12.7292 0.735045 13.2312 0.560381C13.5134 0.468059 13.7794 0.331899 14.0196 0.15686H15.6895V18.5917C15.6895 18.8814 15.6789 19.2901 15.6576 19.8177C15.6364 20.3452 15.6055 20.8466 15.5649 21.3217C15.9153 21.2803 16.2864 21.2545 16.6781 21.2442C17.0698 21.234 17.3688 21.2289 17.5749 21.2289V23.5876H11.7009C11.6797 23.3599 11.654 23.122 11.6238 22.8737C11.5936 22.6253 11.5576 22.3874 11.5157 22.1597C10.9266 22.7994 10.2096 23.3071 9.41162 23.6497C8.69439 23.9389 7.92839 24.0869 7.15544 24.0855ZM8.76317 21.2609C9.28737 21.2642 9.80188 21.1191 10.2475 20.842C10.6876 20.576 11.0585 20.2091 11.3299 19.7713V10.4593C11.051 10.2598 10.7358 10.1175 10.4021 10.0404C9.98908 9.92652 9.5626 9.86914 9.13426 9.86982C8.72125 9.85688 8.31008 9.93021 7.9268 10.0852C7.54352 10.2401 7.19649 10.4733 6.90773 10.77C6.3483 11.3945 5.95949 12.1537 5.77916 12.9738C5.55983 13.8885 5.45087 14.8263 5.45462 15.7671C5.45463 16.6358 5.56367 17.5011 5.77916 18.3425C5.95746 19.1154 6.31828 19.8339 6.83121 20.4375C7.07258 20.7096 7.37103 20.9245 7.7051 21.0669C8.03917 21.2093 8.40053 21.2755 8.76317 21.2609ZM28.2131 23.5885C28.1719 23.2988 28.1462 23.0557 28.136 22.8593C28.1257 22.6628 28.1103 22.43 28.0897 22.161C27.4645 22.8144 26.7046 23.3229 25.8632 23.6509C25.1016 23.9367 24.2954 24.0838 23.4824 24.0855C22.1629 24.0855 21.1321 23.6923 20.39 22.906C20.0206 22.512 19.7322 22.0488 19.5412 21.5429C19.3501 21.037 19.2603 20.4983 19.2767 19.9575C19.2509 19.0496 19.5165 18.1574 20.0342 17.4125C20.5614 16.6897 21.249 16.0999 22.0426 15.69C22.922 15.2287 23.8575 14.8845 24.8255 14.666C25.8362 14.4291 26.8669 14.2887 27.9039 14.2465V12.6324C27.9102 12.1387 27.8425 11.6469 27.703 11.1735C27.589 10.7689 27.3509 10.4107 27.0227 10.1495C26.6282 9.88057 26.152 9.75969 25.6777 9.80806C25.2855 9.82885 24.8992 9.91269 24.5335 10.0564C24.1741 10.1936 23.8475 10.4051 23.5748 10.6772C23.7312 10.8466 23.8382 11.0559 23.8841 11.2823C23.9223 11.4713 23.943 11.6635 23.9459 11.8564C23.9246 12.3282 23.7509 12.7803 23.4511 13.1444C23.1213 13.5892 22.5956 13.8012 21.874 13.7805C21.6033 13.7865 21.3347 13.7309 21.0884 13.618C20.8421 13.5052 20.6244 13.3379 20.4515 13.1287C20.1218 12.7154 19.9467 12.1992 19.9567 11.6698C19.9529 11.2695 20.0289 10.8724 20.1802 10.5019C20.3315 10.1315 20.5551 9.79512 20.8379 9.5127C21.5023 8.85503 22.3132 8.36559 23.2034 8.08486C24.2601 7.73278 25.3678 7.55975 26.481 7.57286C28.295 7.57286 29.702 8.04358 30.702 8.98502C31.702 9.92646 32.2015 11.4318 32.2004 13.5012V15.3025C32.2004 15.7991 32.1953 16.2957 32.1851 16.7924C32.1749 17.289 32.1697 17.8891 32.1695 18.5927C32.1695 18.8824 32.1588 19.291 32.1376 19.8186C32.1163 20.3462 32.0854 20.8475 32.0448 21.3226C32.3953 21.2812 32.7664 21.2554 33.1581 21.2452C33.5498 21.2349 33.8487 21.2298 34.0549 21.2298V23.5885H28.2131ZM27.8729 16.45C27.319 16.5076 26.7708 16.6114 26.234 16.7604C25.7585 16.8877 25.305 17.0867 24.8889 17.3505C24.5267 17.5794 24.2203 17.887 23.9921 18.2506C23.7749 18.6052 23.6624 19.0143 23.6676 19.4305C23.655 19.667 23.6991 19.9031 23.7961 20.119C23.8931 20.3349 24.0403 20.5243 24.2252 20.6714C24.5777 20.9201 24.9995 21.0503 25.4303 21.0436C25.8917 21.0465 26.3472 20.9402 26.76 20.7332C27.172 20.5264 27.5479 20.254 27.8729 19.9265V16.45ZM41.8187 24.0852C41.2193 24.0875 40.622 24.0145 40.0407 23.8679C39.4679 23.72 38.9381 23.4382 38.4945 23.0455C37.978 22.5584 37.5993 21.9426 37.3969 21.2609C37.0971 20.2437 36.9613 19.185 36.9949 18.1249L37.0567 10.6449H34.9526V8.07046C35.6212 8.03965 36.2662 7.81305 36.8081 7.41862C37.4208 6.98898 37.9412 6.44007 38.3383 5.80454C38.7493 5.1709 39.0377 4.46528 39.1886 3.72454H41.4766L41.4448 8.06982H45.3747V10.4596L41.4476 10.5527L41.4158 18.1879C41.4155 18.6621 41.4621 19.1351 41.5547 19.6001C41.6283 20.0251 41.8157 20.4221 42.0967 20.7485C42.2483 20.9046 42.432 21.0257 42.6349 21.1034C42.8378 21.1811 43.0552 21.2135 43.2718 21.1985C43.6841 21.1681 44.0874 21.063 44.4622 20.8881C44.9672 20.6811 45.5083 20.1638 46.0856 19.3361L47.5699 20.7329C47.1007 21.4646 46.5158 22.1146 45.8382 22.6573C45.3163 23.0686 44.7384 23.4027 44.1221 23.6493C43.6607 23.8348 43.1775 23.9599 42.6843 24.0218C42.2722 24.0643 41.9836 24.0855 41.8187 24.0855V24.0852ZM57.062 23.5889C57.0208 23.2991 56.9951 23.0561 56.9849 22.8596C56.9747 22.6631 56.9593 22.4303 56.9387 22.1613C56.3134 22.8147 55.5535 23.3232 54.7121 23.6513C53.9505 23.937 53.1443 24.0841 52.3313 24.0858C51.0119 24.0858 49.9811 23.6926 49.2389 22.9063C48.8695 22.5123 48.5811 22.0491 48.3901 21.5432C48.1991 21.0373 48.1092 20.4986 48.1256 19.9578C48.0998 19.0499 48.3654 18.1578 48.8831 17.4129C49.4103 16.69 50.098 16.1003 50.8916 15.6903C51.7709 15.2291 52.7064 14.8848 53.6744 14.6663C54.6846 14.4298 55.7148 14.2895 56.7512 14.2474V12.6333C56.758 12.1398 56.6908 11.648 56.5519 11.1745C56.4379 10.7699 56.1999 10.4116 55.8716 10.1505C55.4772 9.88153 55.001 9.76065 54.5266 9.80902C54.1344 9.82981 53.7481 9.91365 53.3824 10.0573C53.023 10.1946 52.6964 10.4061 52.4237 10.6781C52.5802 10.8476 52.6871 11.0569 52.733 11.2833C52.7713 11.4723 52.792 11.6645 52.7948 11.8573C52.7735 12.3292 52.5999 12.7813 52.3 13.1453C51.9702 13.5901 51.4445 13.8022 50.7229 13.7815C50.4522 13.7874 50.1837 13.7319 49.9373 13.619C49.691 13.5061 49.4733 13.3388 49.3004 13.1297C48.9707 12.7164 48.7956 12.2002 48.8056 11.6708C48.8018 11.2704 48.8778 10.8733 49.0291 10.5029C49.1804 10.1324 49.4041 9.79608 49.6868 9.51366C50.3512 8.85599 51.1621 8.36655 52.0523 8.08582C53.109 7.73374 54.2167 7.56071 55.33 7.57382C57.144 7.57382 58.551 8.04454 59.5509 8.98598C60.5509 9.92742 61.0504 11.4328 61.0493 13.5021V15.3025C61.0493 15.7991 61.0442 16.2957 61.034 16.7924C61.0238 17.289 61.0187 17.8891 61.0187 18.5927C61.0187 18.8824 61.0081 19.291 60.9868 19.8186C60.9656 20.3462 60.9347 20.8475 60.8941 21.3226C61.2445 21.2812 61.6156 21.2554 62.0073 21.2452C62.399 21.2349 62.698 21.2298 62.9041 21.2298V23.5885L57.062 23.5889ZM56.7231 16.45C56.1692 16.5076 55.621 16.6115 55.0842 16.7604C54.6087 16.8877 54.1552 17.0867 53.7391 17.3505C53.3769 17.5794 53.0705 17.887 52.8423 18.2506C52.6251 18.6052 52.5126 19.0143 52.5178 19.4305C52.505 19.667 52.5489 19.9032 52.6458 20.1192C52.7426 20.3352 52.8896 20.5248 53.0744 20.6721C53.4271 20.921 53.8493 21.0514 54.2805 21.0445C54.7419 21.0475 55.1974 20.9411 55.6102 20.7341C56.0223 20.5273 56.3983 20.2548 56.7235 19.9271V16.45H56.7231Z" fill="black"/>
<path d="M73.6673 32.0001C72.3246 32.0447 70.9887 31.7903 69.7555 31.2551C68.7504 30.7929 67.9285 30.0061 67.4209 29.0203C66.8731 27.8798 66.6079 26.6233 66.6478 25.3579C66.6478 24.7578 66.6736 24.0956 66.725 23.3713C66.7764 22.647 66.828 21.9331 66.8796 21.2295C66.931 20.5255 66.9568 19.9047 66.9568 19.3671C66.9568 18.3118 66.7506 17.572 66.3383 17.1479C65.926 16.7238 65.1427 16.5119 63.9884 16.5121H63.2771V14.3083H63.9884C65.1429 14.3083 65.9262 14.122 66.3383 13.7495C66.7504 13.3771 66.9565 12.6631 66.9568 11.6078C66.9544 10.7628 66.9027 9.9187 66.8021 9.07978C66.6984 8.18864 66.6468 7.29217 66.6475 6.39498C66.5988 5.14362 66.8647 3.90009 67.4206 2.77898C67.939 1.83464 68.7625 1.09571 69.7552 0.683936C70.9992 0.191373 72.3303 -0.0410008 73.667 0.00105623H74.5328V2.2049C73.8238 2.15197 73.1108 2.19894 72.4147 2.34442C72.1479 2.40849 71.8997 2.53452 71.6903 2.71237C71.4808 2.89022 71.3159 3.11493 71.2087 3.36842C70.9511 3.91668 70.8223 4.78068 70.8223 5.96042C70.8223 6.27082 70.8377 6.62282 70.8685 7.01642C70.8993 7.41002 70.9405 7.81866 70.9922 8.24234C71.0436 8.66644 71.09 9.09578 71.1312 9.53034C71.2528 10.5388 71.087 11.5612 70.653 12.4788C70.2401 13.3157 69.596 14.0155 68.7975 14.4948C67.9349 15.0071 66.9672 15.3149 65.9681 15.395V15.4571C66.959 15.5405 67.917 15.8539 68.7666 16.3726C69.5626 16.8596 70.2098 17.5571 70.6374 18.3886C71.0832 19.2979 71.2649 20.3148 71.1615 21.323C71.1202 21.8403 71.0739 22.3835 71.0225 22.9524C70.971 23.5214 70.9247 24.0547 70.8835 24.5524C70.8422 25.0491 70.8216 25.4629 70.8216 25.794C70.8216 26.9735 70.9504 27.8529 71.208 28.4321C71.3139 28.6982 71.4768 28.9376 71.6853 29.1334C71.8937 29.3292 72.1425 29.4765 72.414 29.5649C73.1028 29.7577 73.8182 29.8362 74.5322 29.7975V32.0001H73.6673ZM82.1707 24.0855C80.8453 24.0992 79.5377 23.7791 78.3674 23.1543C77.2113 22.5321 76.2525 21.5967 75.5999 20.4545C74.877 19.1463 74.5192 17.6666 74.5641 16.1713C74.556 15.0376 74.7551 13.9119 75.1516 12.8503C75.526 11.8433 76.0868 10.9164 76.8043 10.1185C77.5155 9.33217 78.378 8.69862 79.3398 8.2561C80.3642 7.7912 81.4779 7.55807 82.6021 7.57322C83.7303 7.53644 84.8533 7.74278 85.8953 8.17834C86.6873 8.51361 87.3721 9.06131 87.8745 9.76138C88.3021 10.3645 88.5342 11.0852 88.5392 11.8254C88.5463 12.4053 88.355 12.9701 87.9972 13.4254C87.8153 13.657 87.5826 13.8434 87.3172 13.9699C87.0517 14.0964 86.7608 14.1596 86.467 14.1547C85.6835 14.176 85.1372 13.9536 84.828 13.4875C84.5428 13.0939 84.3813 12.6237 84.3641 12.1374C84.3693 11.9121 84.4005 11.6882 84.4569 11.4702C84.5136 11.2245 84.6074 10.989 84.7352 10.7719C84.6052 10.4749 84.3763 10.2325 84.0877 10.0865C83.81 9.94534 83.5131 9.84603 83.2065 9.79178C82.9672 9.74359 82.7225 9.7282 82.479 9.74602C81.9831 9.78138 81.5028 9.93501 81.078 10.1941C80.6531 10.4533 80.296 10.8104 80.0363 11.2359C79.3973 12.1671 79.0777 13.5121 79.0777 15.2708C79.0704 16.2516 79.2005 17.2285 79.4641 18.1729C79.688 19.0136 80.1313 19.7791 80.7482 20.3905C81.4068 20.9944 82.268 21.3269 83.16 21.3217C84.0444 21.3379 84.9178 21.124 85.6954 20.7009C86.5158 20.2705 87.2336 19.6669 87.7996 18.9316L89.2221 20.3284C88.5952 21.2471 87.8097 22.0459 86.9028 22.6871C86.1736 23.191 85.3627 23.5638 84.5063 23.7889C83.7426 23.9824 82.9584 24.082 82.1707 24.0855ZM90.8907 21.5716C91.3307 21.6131 91.7706 21.4917 92.1276 21.2302C92.3922 20.9677 92.5607 20.6232 92.6059 20.2526C92.6821 19.7754 92.7182 19.2926 92.7139 18.8094V13.5947C92.7139 13.2222 92.7246 12.8032 92.7458 12.3377C92.7671 11.8722 92.798 11.4118 92.8386 10.9566C92.5087 10.9779 92.1222 10.9934 91.6791 11.003C91.236 11.0126 90.901 11.028 90.6742 11.0494V8.69066H91.9112C92.6595 8.6986 93.4047 8.59397 94.1221 8.38026C94.5992 8.26974 95.0473 8.05807 95.4362 7.75946H96.9515C97.0083 8.14488 97.0393 8.5337 97.0442 8.9233C97.0655 9.49226 97.0761 9.99359 97.0761 10.4273C97.5495 9.83067 98.0775 9.27988 98.6533 8.78218C99.0927 8.40256 99.5882 8.09371 100.122 7.86666C100.588 7.67383 101.087 7.57373 101.591 7.57194C102.269 7.55789 102.933 7.77078 103.477 8.17706C104.013 8.58047 104.281 9.23743 104.281 10.1479C104.275 10.4851 104.202 10.8176 104.065 11.1255C103.92 11.4672 103.685 11.7625 103.384 11.979C103.009 12.2256 102.565 12.3452 102.116 12.3204C101.669 12.3103 101.231 12.1818 100.849 11.9479C100.416 11.6996 100.168 11.2237 100.106 10.5201C99.6467 10.5388 99.2085 10.7201 98.8694 11.0321C98.4492 11.3824 98.0797 11.7898 97.7718 12.2427C97.4885 12.637 97.2646 13.071 97.1071 13.5307V18.5918C97.1071 18.8815 97.0964 19.2901 97.0752 19.8177C97.0539 20.3453 97.023 20.8466 96.9824 21.3217C97.3123 21.2803 97.6781 21.2545 98.08 21.2443C98.4819 21.234 98.786 21.2289 98.9921 21.2289V23.5876H90.8907V21.5716ZM114.175 23.5876C114.134 23.2979 114.108 23.0548 114.098 22.8583C114.088 22.6619 114.072 22.4291 114.052 22.1601C113.426 22.8135 112.666 23.322 111.825 23.65C111.063 23.9357 110.257 24.0829 109.444 24.0846C108.125 24.0846 107.094 23.6914 106.352 22.9051C105.982 22.5111 105.694 22.0479 105.503 21.542C105.312 21.0361 105.222 20.4973 105.238 19.9566C105.213 19.0487 105.478 18.1565 105.996 17.4116C106.523 16.6888 107.211 16.099 108.004 15.6891C108.884 15.2278 109.819 14.8836 110.787 14.6651C111.798 14.4285 112.829 14.2884 113.866 14.2465V12.6324C113.872 12.1388 113.804 11.647 113.665 11.1735C113.551 10.769 113.313 10.4107 112.984 10.1495C112.59 9.88061 112.114 9.75972 111.639 9.8081C111.247 9.82889 110.861 9.91273 110.495 10.0564C110.136 10.1937 109.809 10.4052 109.537 10.6772C109.693 10.8466 109.8 11.056 109.846 11.2823C109.884 11.4714 109.905 11.6635 109.908 11.8564C109.886 12.3283 109.713 12.7804 109.413 13.1444C109.083 13.5892 108.557 13.8013 107.836 13.7806C107.565 13.7865 107.297 13.7309 107.05 13.6181C106.804 13.5052 106.586 13.3379 106.413 13.1287C106.084 12.7154 105.908 12.1992 105.918 11.6699C105.915 11.2695 105.991 10.8724 106.142 10.5019C106.293 10.1315 106.517 9.79516 106.8 9.51274C107.464 8.85507 108.275 8.36563 109.165 8.0849C110.222 7.73282 111.33 7.55979 112.443 7.5729C114.257 7.5729 115.664 8.04362 116.664 8.98506C117.664 9.9265 118.163 11.4319 118.162 13.5012V15.3025C118.162 15.7991 118.157 16.2958 118.147 16.7924C118.137 17.2891 118.132 17.8892 118.132 18.5927C118.132 18.8824 118.121 19.2911 118.1 19.8187C118.078 20.3462 118.048 20.8476 118.007 21.3227C118.357 21.2813 118.728 21.2555 119.12 21.2452C119.512 21.235 119.811 21.2299 120.017 21.2299V23.5886L114.175 23.5876ZM113.835 16.4491C113.281 16.5067 112.733 16.6105 112.196 16.7595C111.72 16.8871 111.267 17.0864 110.851 17.3505C110.488 17.5795 110.182 17.8871 109.954 18.2507C109.737 18.6052 109.624 19.0143 109.629 19.4305C109.617 19.667 109.66 19.9032 109.757 20.1192C109.854 20.3352 110.001 20.5248 110.186 20.6721C110.539 20.921 110.961 21.0514 111.392 21.0446C111.853 21.0475 112.309 20.9412 112.722 20.7342C113.134 20.5274 113.51 20.2548 113.835 19.9271V16.45L113.835 16.4491ZM123.699 7.16906C123.699 4.66538 124.245 2.87039 125.338 1.7841C126.43 0.697802 127.904 0.154656 129.76 0.154656C130.554 0.1211 131.346 0.264136 132.079 0.573536C132.584 0.790872 133.014 1.15242 133.316 1.61322C133.554 1.99519 133.682 2.43585 133.687 2.8865C133.693 3.40587 133.518 3.9111 133.192 4.31434C133.019 4.52358 132.801 4.69091 132.555 4.80384C132.309 4.91677 132.04 4.97237 131.769 4.9665C131.517 4.99212 131.261 4.96248 131.021 4.87962C130.781 4.79675 130.561 4.66264 130.378 4.4865C130.214 4.31583 130.086 4.11394 130.001 3.89273C129.916 3.67152 129.876 3.43547 129.883 3.1985C129.883 3.09503 129.888 2.99156 129.898 2.8881C129.909 2.78463 129.924 2.68116 129.945 2.5777C129.848 2.4778 129.725 2.40784 129.589 2.3761C129.473 2.34735 129.354 2.33178 129.234 2.3297C129.092 2.32153 128.949 2.34355 128.816 2.39433C128.683 2.44512 128.562 2.52351 128.461 2.62442C128.272 2.82795 128.143 3.08058 128.09 3.3537C128.027 3.64962 127.996 3.95136 127.997 4.25386V8.0705H131.46V10.4603L128.028 10.5534L128.06 18.53C128.06 18.8197 128.049 19.2387 128.028 19.787C128.007 20.3352 127.976 20.8472 127.935 21.323C128.286 21.2816 128.682 21.2558 129.126 21.2455C129.569 21.2353 129.893 21.2302 130.099 21.2302V23.5889H121.842V21.5713C122.287 21.6106 122.731 21.4896 123.095 21.2299C123.368 20.9719 123.543 20.6261 123.589 20.2523C123.666 19.7751 123.702 19.2923 123.698 18.8091V10.6151L121.44 10.6471V8.0705H123.698L123.699 7.16906ZM139.315 24.0846C138.715 24.0869 138.118 24.0139 137.537 23.8673C136.964 23.7194 136.434 23.4376 135.99 23.0449C135.474 22.558 135.095 21.9425 134.892 21.2609C134.593 20.2438 134.457 19.1851 134.49 18.1249L134.552 10.6449H132.448V8.0705C133.117 8.03969 133.762 7.81309 134.304 7.41866C134.916 6.98901 135.437 6.44011 135.834 5.80458C136.245 5.17094 136.533 4.46532 136.684 3.72458H138.972L138.94 8.06986H142.867V10.4596L138.94 10.5527L138.908 18.1879C138.908 18.6621 138.955 19.1351 139.047 19.6001C139.121 20.0252 139.308 20.4221 139.589 20.7486C139.741 20.9047 139.925 21.0258 140.128 21.1035C140.33 21.1812 140.548 21.2136 140.764 21.1985C141.177 21.1682 141.58 21.063 141.955 20.8881C142.46 20.6812 143.001 20.1638 143.578 19.3361L145.063 20.7329C144.593 21.4646 144.008 22.1146 143.331 22.6574C142.809 23.0686 142.231 23.4027 141.615 23.6494C141.153 23.8348 140.67 23.96 140.177 24.0219C139.767 24.0643 139.479 24.0855 139.314 24.0855L139.315 24.0846ZM153.291 24.0846C151.896 24.1126 150.518 23.7643 149.302 23.0759C148.15 22.4051 147.215 21.4133 146.612 20.2206C145.945 18.8667 145.616 17.3704 145.653 15.8606C145.645 14.4479 145.974 13.0537 146.612 11.7947C147.231 10.555 148.164 9.50059 149.318 8.73738C150.526 7.94862 151.943 7.54309 153.384 7.57354C154.242 7.57236 155.095 7.69248 155.919 7.93034C156.747 8.16979 157.512 8.58823 158.161 9.15626C158.877 9.80225 159.429 10.6111 159.769 11.515C160.203 12.706 160.398 13.9716 160.341 15.2385L150.199 15.4247C150.185 16.4441 150.325 17.4597 150.616 18.4366C150.853 19.2635 151.332 19.9996 151.992 20.5486C152.732 21.0981 153.639 21.3725 154.558 21.3246C155.035 21.315 155.508 21.2419 155.965 21.1073C156.534 20.9434 157.075 20.6977 157.573 20.378C158.156 20.0042 158.673 19.5371 159.104 18.9953L160.496 20.299C159.862 21.2458 159.054 22.0623 158.115 22.7044C157.348 23.2191 156.495 23.5922 155.597 23.8062C154.84 23.9831 154.067 24.0768 153.291 24.0855L153.291 24.0846ZM150.384 13.2545H156.074C156.084 12.5504 155.963 11.8505 155.719 11.1905C155.548 10.7385 155.239 10.3522 154.837 10.0865C154.444 9.85305 153.995 9.73476 153.538 9.74506C153.131 9.72679 152.725 9.80599 152.354 9.97612C151.983 10.1463 151.658 10.4025 151.405 10.7236C150.852 11.4646 150.501 12.3366 150.384 13.2545ZM162.598 21.5713C163.038 21.6128 163.478 21.4913 163.835 21.2299C164.101 20.9678 164.27 20.6232 164.316 20.2523C164.392 19.7751 164.428 19.2923 164.424 18.8091V13.5947C164.424 13.2222 164.435 12.8032 164.456 12.3377C164.477 11.8722 164.508 11.4118 164.549 10.9566C164.219 10.9779 163.833 10.9934 163.389 11.003C162.946 11.0126 162.611 11.028 162.384 11.0494V8.69066H163.621C164.37 8.6986 165.115 8.59397 165.832 8.38026C166.309 8.26974 166.758 8.05807 167.146 7.75946H168.662C168.719 8.14488 168.75 8.5337 168.755 8.9233C168.776 9.49226 168.786 9.99359 168.786 10.4273C169.26 9.83067 169.788 9.27988 170.364 8.78218C170.803 8.40255 171.298 8.0937 171.832 7.86666C172.298 7.67383 172.797 7.57373 173.301 7.57194C173.979 7.55789 174.643 7.77078 175.187 8.17706C175.721 8.58154 175.988 9.23935 175.988 10.1505C175.982 10.4877 175.908 10.8202 175.771 11.1281C175.627 11.4693 175.392 11.7642 175.092 11.9806C174.716 12.2272 174.272 12.3468 173.824 12.322C173.376 12.3119 172.939 12.1834 172.556 11.9495C172.123 11.7012 171.876 11.2253 171.814 10.5217C171.354 10.5404 170.916 10.7217 170.577 11.0337C170.157 11.384 169.787 11.7914 169.479 12.2443C169.196 12.6386 168.972 13.0726 168.814 13.5323V18.5918C168.814 18.8815 168.804 19.2901 168.783 19.8177C168.761 20.3453 168.73 20.8466 168.69 21.3217C169.02 21.2803 169.386 21.2545 169.787 21.2443C170.189 21.234 170.493 21.2289 170.7 21.2289V23.5876H162.598V21.5713ZM176.359 32.0001C177.701 32.0447 179.037 31.7902 180.27 31.2551C181.275 30.7929 182.097 30.0061 182.605 29.0203C183.153 27.8798 183.418 26.6233 183.378 25.3579C183.378 24.7578 183.352 24.0956 183.301 23.3713C183.249 22.647 183.198 21.9331 183.146 21.2295C183.095 20.5255 183.069 19.9047 183.069 19.3671C183.069 18.3118 183.275 17.572 183.688 17.1479C184.1 16.7238 184.883 16.5119 186.037 16.5121H186.748V14.3083H186.037C184.883 14.3083 184.099 14.122 183.687 13.7495C183.275 13.3771 183.069 12.6631 183.069 11.6078C183.071 10.7628 183.123 9.9187 183.223 9.07978C183.327 8.18864 183.379 7.29217 183.378 6.39498C183.427 5.14362 183.161 3.90009 182.605 2.77898C182.087 1.83464 181.263 1.09571 180.27 0.683936C179.026 0.191373 177.695 -0.0410008 176.359 0.00105623H175.493V2.2049C176.202 2.1514 176.914 2.19772 177.61 2.3425C177.877 2.40648 178.125 2.53247 178.335 2.71033C178.545 2.88818 178.71 3.11293 178.817 3.3665C179.075 3.91476 179.203 4.77876 179.203 5.9585C179.203 6.2689 179.188 6.6209 179.157 7.0145C179.126 7.4081 179.085 7.81674 179.033 8.24042C178.982 8.66452 178.936 9.09386 178.894 9.52842C178.773 10.5369 178.939 11.5593 179.373 12.4769C179.785 13.3137 180.43 14.0136 181.228 14.4929C182.091 15.0051 183.058 15.313 184.057 15.3931V15.4551C183.067 15.5386 182.109 15.852 181.259 16.3707C180.463 16.8577 179.816 17.5552 179.388 18.3867C178.942 19.2954 178.76 20.3119 178.863 21.3198C178.904 21.8371 178.95 22.3803 179.002 22.9492C179.053 23.5182 179.099 24.0515 179.141 24.5492C179.182 25.0459 179.202 25.4597 179.202 25.7908C179.202 26.9703 179.074 27.8497 178.816 28.4289C178.71 28.695 178.547 28.9344 178.339 29.1302C178.13 29.326 177.881 29.4733 177.61 29.5617C176.921 29.7545 176.206 29.833 175.492 29.7943V32.0001H176.359Z" fill="black"/>
</svg>
