<svg x="800" y="140" width="300" height="356" viewBox="0 0 300 356" fill="none" xmlns="http://www.w3.org/2000/svg">
<g clip-path="url(#clip0_8_8)">
<path d="M275.001 170H0.000976562V160H210.001C213.979 160 217.795 158.42 220.608 155.607C223.421 152.794 225.001 148.978 225.001 145C225.001 141.022 223.421 137.206 220.608 134.393C217.795 131.58 213.979 130 210.001 130H0.000976562V120H275.001C281.631 120 287.99 122.634 292.679 127.322C297.367 132.011 300.001 138.37 300.001 145C300.001 151.63 297.367 157.989 292.679 162.678C287.99 167.366 281.631 170 275.001 170ZM275.001 110H0.000976562V100H60.001C63.9792 100 67.7945 98.4197 70.6076 95.6066C73.4206 92.7936 75.001 88.9782 75.001 85C75.001 81.0218 73.4206 77.2064 70.6076 74.3934C67.7945 71.5803 63.9792 70 60.001 70H0.000976562V60H275.001C281.631 60 287.99 62.6339 292.679 67.3223C297.367 72.0107 300.001 78.3696 300.001 85C300.001 91.6304 297.367 97.9893 292.679 102.678C287.99 107.366 281.631 110 275.001 110ZM275.001 50H0.000976562V40H135.001C138.979 40 142.795 38.4196 145.608 35.6066C148.421 32.7936 150.001 28.9782 150.001 25C150.001 21.0218 148.421 17.2064 145.608 14.3934C142.795 11.5804 138.979 10 135.001 10H0.000976562V0H275.001C280.769 0.00381969 286.357 2.00115 290.821 5.65365C295.285 9.30616 298.348 14.3893 299.494 20.042C300.639 25.6947 299.795 31.5695 297.104 36.6712C294.414 41.7729 290.043 45.7879 284.732 48.036C281.653 49.3387 278.344 50.0067 275.001 50Z" fill="#01A288"/>
<path d="M14.899 219.873H10.899V229.937H3.199V203.395H10.899V213.706H15.043L22.243 203.395H30.433L21.16 216.123L31.081 229.937H22.003L14.899 219.873ZM44.699 203C48.8103 203 51.9677 203.978 54.171 205.935C56.3743 207.892 57.476 210.844 57.476 214.791V229.937H50.276V226.632C48.8287 229.099 46.1317 230.332 42.185 230.332C40.3641 230.375 38.5556 230.022 36.885 229.296C35.4909 228.692 34.3004 227.698 33.456 226.435C32.6571 225.202 32.241 223.759 32.26 222.29C32.2161 221.166 32.447 220.048 32.9326 219.034C33.4183 218.019 34.1441 217.139 35.047 216.468C36.909 215.052 39.78 214.344 43.66 214.344H49.778C49.8232 213.626 49.7096 212.906 49.4454 212.237C49.1811 211.568 48.7726 210.965 48.249 210.471C46.9364 209.474 45.3037 208.992 43.66 209.118C42.2439 209.118 40.8367 209.343 39.491 209.784C38.2336 210.172 37.0557 210.781 36.013 211.584L33.25 206.207C34.8341 205.124 36.5933 204.323 38.45 203.839C40.4848 203.278 42.5863 202.996 44.697 203H44.699ZM44.107 225.151C45.3353 225.173 46.5461 224.857 47.607 224.238C48.6276 223.629 49.3974 222.675 49.778 221.549V218.836H44.5C41.34 218.836 39.76 219.872 39.76 221.944C39.7452 222.4 39.8433 222.852 40.0455 223.261C40.2477 223.67 40.5478 224.022 40.919 224.287C41.8596 224.912 42.9775 225.215 44.105 225.151H44.107ZM86.484 209.71H77.505V229.937H69.86V209.71H60.879V203.395H86.479L86.484 209.71ZM100.89 203C105.001 203 108.159 203.978 110.362 205.935C112.565 207.892 113.667 210.844 113.667 214.791V229.937H106.467V226.632C105.02 229.099 102.323 230.332 98.376 230.332C96.5551 230.375 94.7466 230.022 93.076 229.296C91.6819 228.692 90.4914 227.698 89.647 226.435C88.8513 225.201 88.4383 223.759 88.46 222.29C88.4161 221.166 88.647 220.048 89.1326 219.034C89.6183 218.019 90.344 217.139 91.247 216.468C93.105 215.054 95.9747 214.347 99.856 214.347H105.974C106.019 213.629 105.906 212.909 105.641 212.24C105.377 211.571 104.969 210.968 104.445 210.474C103.133 209.476 101.501 208.993 99.857 209.117C98.4409 209.117 97.0337 209.342 95.688 209.783C94.4306 210.171 93.2527 210.78 92.21 211.583L89.447 206.206C91.0311 205.123 92.7903 204.322 94.647 203.838C96.6805 203.278 98.7807 202.996 100.89 203ZM100.298 225.151C101.526 225.173 102.737 224.857 103.798 224.238C104.819 223.629 105.588 222.675 105.969 221.549V218.836H100.69C97.5367 218.836 95.96 219.872 95.96 221.944C95.9452 222.4 96.0433 222.852 96.2455 223.261C96.4477 223.67 96.7478 224.022 97.119 224.287C98.0577 224.91 99.1729 225.214 100.298 225.151ZM145.834 203.394V229.937H138.134V209.71H129.747L129.5 214.397C129.435 217.315 129.105 220.222 128.513 223.08C128.134 225.078 127.251 226.946 125.948 228.507C125.319 229.175 124.552 229.698 123.7 230.039C122.848 230.38 121.931 230.53 121.015 230.48C119.662 230.447 118.319 230.248 117.015 229.888L117.41 223.573C117.786 223.627 118.165 223.66 118.545 223.673C119.048 223.704 119.551 223.604 120.005 223.384C120.459 223.163 120.848 222.83 121.135 222.415C121.758 221.447 122.155 220.351 122.294 219.208C122.528 217.498 122.676 215.778 122.738 214.053L123.133 203.397L145.834 203.394ZM165.666 230.331C163.052 230.374 160.468 229.773 158.142 228.58C155.991 227.475 154.19 225.792 152.942 223.721C151.676 221.588 151.026 219.146 151.067 216.666C151.026 214.186 151.676 211.744 152.942 209.611C154.19 207.54 155.991 205.857 158.142 204.752C160.468 203.559 163.052 202.958 165.666 203.001C168.272 202.956 170.849 203.557 173.166 204.752C175.308 205.862 177.101 207.544 178.346 209.611C179.612 211.744 180.262 214.186 180.221 216.666C180.262 219.146 179.612 221.588 178.346 223.721C177.101 225.788 175.308 227.47 173.166 228.58C170.849 229.775 168.272 230.376 165.666 230.331ZM165.666 224.016C166.571 224.045 167.472 223.882 168.31 223.537C169.147 223.192 169.902 222.674 170.525 222.016C171.841 220.553 172.524 218.628 172.425 216.663C172.524 214.698 171.841 212.773 170.525 211.31C169.902 210.652 169.147 210.134 168.31 209.789C167.472 209.445 166.571 209.281 165.666 209.31C164.757 209.283 163.853 209.447 163.012 209.791C162.17 210.136 161.411 210.653 160.782 211.31C160.124 212.031 159.615 212.875 159.284 213.794C158.954 214.713 158.809 215.688 158.858 216.663C158.809 217.638 158.954 218.613 159.284 219.532C159.615 220.451 160.124 221.295 160.782 222.016C161.41 222.673 162.17 223.191 163.011 223.535C163.853 223.88 164.757 224.044 165.666 224.017V224.016ZM206.766 209.709H193.146V229.937H185.499V203.395H206.76L206.766 209.709ZM14.899 279.999H10.899V290.064H3.199V263.521H10.899V273.832H15.043L22.243 263.521H30.433L21.16 276.25L31.081 290.064H22.003L14.899 279.999ZM44.699 263.126C48.8103 263.126 51.9677 264.104 54.171 266.061C56.3743 268.018 57.476 270.97 57.476 274.917V290.064H50.276V286.758C48.8287 289.225 46.1317 290.458 42.185 290.458C40.3641 290.501 38.5556 290.148 36.885 289.422C35.4909 288.818 34.3004 287.824 33.456 286.561C32.6573 285.328 32.2412 283.886 32.26 282.417C32.2161 281.293 32.447 280.175 32.9326 279.161C33.4183 278.146 34.1441 277.266 35.047 276.595C36.909 275.181 39.78 274.474 43.66 274.474H49.778C49.8232 273.756 49.7096 273.036 49.4454 272.367C49.1811 271.698 48.7726 271.095 48.249 270.601C46.937 269.602 45.3042 269.119 43.66 269.244C42.2439 269.244 40.8367 269.469 39.491 269.91C38.2336 270.298 37.0557 270.907 36.013 271.71L33.252 266.334C34.8361 265.251 36.5953 264.45 38.452 263.966C40.4861 263.405 42.587 263.123 44.697 263.127L44.699 263.126ZM44.107 285.277C45.3353 285.299 46.5461 284.983 47.607 284.364C48.6276 283.755 49.3974 282.801 49.778 281.675V278.963H44.5C41.3427 278.963 39.764 279.999 39.764 282.071C39.7492 282.527 39.8473 282.979 40.0495 283.388C40.2517 283.797 40.5518 284.149 40.923 284.414C41.8625 285.038 42.9789 285.341 44.105 285.278L44.107 285.277ZM86.484 269.836H77.505V290.064H69.86V269.836H60.879V263.521H86.479L86.484 269.836ZM100.89 263.126C105.001 263.126 108.159 264.104 110.362 266.061C112.565 268.018 113.667 270.97 113.667 274.917V290.064H106.467V286.758C105.02 289.225 102.323 290.458 98.376 290.458C96.5551 290.501 94.7466 290.148 93.076 289.422C91.6819 288.818 90.4914 287.824 89.647 286.561C88.8515 285.327 88.4385 283.885 88.46 282.417C88.4161 281.293 88.647 280.175 89.1326 279.161C89.6183 278.146 90.344 277.266 91.247 276.595C93.105 275.181 95.9747 274.474 99.856 274.474H105.974C106.019 273.756 105.906 273.036 105.641 272.367C105.377 271.698 104.969 271.095 104.445 270.601C103.133 269.603 101.501 269.12 99.857 269.244C98.4409 269.244 97.0337 269.469 95.688 269.91C94.4306 270.298 93.2527 270.907 92.21 271.71L89.444 266.334C91.0281 265.251 92.7873 264.45 94.644 263.966C96.6784 263.405 98.7796 263.123 100.89 263.127V263.126ZM100.298 285.277C101.526 285.299 102.737 284.983 103.798 284.364C104.819 283.755 105.588 282.801 105.969 281.675V278.963H100.69C97.5327 278.963 95.954 279.999 95.954 282.071C95.9392 282.527 96.0373 282.979 96.2395 283.388C96.4417 283.797 96.7418 284.149 97.113 284.414C98.0534 285.039 99.1709 285.342 100.298 285.278V285.277ZM145.834 263.52V290.064H138.134V269.836H129.747L129.5 274.523C129.435 277.441 129.105 280.348 128.513 283.206C128.134 285.204 127.251 287.072 125.948 288.633C125.319 289.301 124.552 289.824 123.7 290.165C122.848 290.506 121.931 290.656 121.015 290.606C119.662 290.573 118.319 290.374 117.015 290.014L117.41 283.699C117.786 283.753 118.165 283.786 118.545 283.799C119.048 283.83 119.551 283.73 120.005 283.51C120.459 283.289 120.848 282.956 121.135 282.541C121.758 281.573 122.155 280.477 122.294 279.334C122.528 277.624 122.676 275.904 122.738 274.179L123.133 263.523L145.834 263.52ZM165.667 290.457C163.053 290.5 160.469 289.899 158.143 288.706C155.992 287.601 154.191 285.918 152.943 283.847C151.677 281.714 151.027 279.272 151.068 276.792C151.027 274.312 151.677 271.87 152.943 269.737C154.191 267.666 155.992 265.983 158.143 264.878C160.479 263.726 163.049 263.127 165.654 263.127C168.259 263.127 170.829 263.726 173.165 264.878C175.307 265.988 177.1 267.67 178.345 269.737C179.611 271.87 180.261 274.312 180.22 276.792C180.261 279.272 179.611 281.714 178.345 283.847C177.1 285.914 175.307 287.596 173.165 288.706C170.849 289.901 168.272 290.503 165.666 290.458L165.667 290.457ZM165.667 284.142C166.572 284.171 167.473 284.008 168.311 283.663C169.148 283.318 169.903 282.8 170.526 282.142C171.842 280.679 172.525 278.754 172.426 276.789C172.525 274.824 171.842 272.899 170.526 271.436C169.903 270.778 169.148 270.26 168.311 269.915C167.473 269.571 166.572 269.407 165.667 269.436C164.758 269.409 163.854 269.573 163.013 269.917C162.171 270.262 161.412 270.779 160.783 271.436C160.125 272.157 159.616 273.001 159.285 273.92C158.955 274.839 158.81 275.814 158.859 276.789C158.81 277.764 158.955 278.739 159.285 279.658C159.616 280.577 160.125 281.421 160.783 282.142C161.411 282.799 162.171 283.317 163.012 283.662C163.853 284.007 164.757 284.171 165.666 284.144L165.667 284.142ZM206.767 269.835H193.146V290.064H185.499V263.521H206.76L206.767 269.835ZM222.209 290.457C219.595 290.5 217.011 289.899 214.685 288.706C212.534 287.601 210.733 285.918 209.485 283.847C208.219 281.714 207.569 279.272 207.61 276.792C207.569 274.312 208.219 271.87 209.485 269.737C210.733 267.666 212.534 265.983 214.685 264.878C217.021 263.726 219.591 263.127 222.196 263.127C224.801 263.127 227.371 263.726 229.707 264.878C231.849 265.988 233.642 267.67 234.887 269.737C236.153 271.87 236.803 274.312 236.762 276.792C236.803 279.272 236.153 281.714 234.887 283.847C233.642 285.914 231.849 287.596 229.707 288.706C227.389 289.901 224.811 290.503 222.204 290.458L222.209 290.457ZM222.209 284.142C223.114 284.171 224.015 284.008 224.853 283.663C225.69 283.318 226.445 282.8 227.068 282.142C228.384 280.679 229.067 278.754 228.968 276.789C229.067 274.824 228.384 272.899 227.068 271.436C226.445 270.778 225.69 270.26 224.853 269.915C224.015 269.571 223.114 269.407 222.209 269.436C221.3 269.409 220.396 269.573 219.555 269.917C218.713 270.262 217.954 270.779 217.325 271.436C216.667 272.157 216.158 273.001 215.827 273.92C215.497 274.839 215.352 275.814 215.401 276.789C215.351 277.764 215.495 278.739 215.825 279.659C216.154 280.578 216.662 281.422 217.32 282.144C217.949 282.801 218.708 283.318 219.55 283.663C220.391 284.007 221.295 284.171 222.204 284.144L222.209 284.142ZM262.318 276.199C265.443 277.252 267.005 279.357 267.005 282.514C267.054 283.596 266.831 284.673 266.357 285.647C265.884 286.62 265.173 287.46 264.292 288.089C262.483 289.404 259.786 290.062 256.201 290.062H242.037V263.521H255.604C258.32 263.372 261.023 263.996 263.399 265.321C264.278 265.835 265.002 266.575 265.497 267.465C265.991 268.354 266.238 269.361 266.211 270.378C266.235 271.613 265.882 272.826 265.2 273.856C264.481 274.897 263.479 275.71 262.313 276.201L262.318 276.199ZM249.091 274.424H254.913C257.61 274.424 258.958 273.47 258.958 271.563C258.958 269.688 257.61 268.751 254.913 268.751H249.091V274.424ZM255.554 284.834C258.383 284.834 259.797 283.864 259.797 281.923C259.831 281.496 259.759 281.068 259.587 280.676C259.414 280.284 259.148 279.941 258.81 279.678C257.871 279.129 256.787 278.88 255.702 278.963H249.091V284.834H255.554ZM32.96 343.876V355.914H25.802V350.191H7.154V355.914H0V343.876H1.085C2.72967 343.843 3.863 342.873 4.485 340.965C5.22496 338.313 5.62285 335.578 5.669 332.825L6.019 323.644H29.16V343.871L32.96 343.876ZM12.63 333.367C12.578 335.582 12.3718 337.791 12.013 339.978C11.8252 341.422 11.2161 342.778 10.262 343.878H21.46V329.963H12.778L12.63 333.367ZM48.101 323.254C52.2123 323.254 55.3697 324.232 57.573 326.189C59.7763 328.146 60.8783 331.097 60.879 335.044V350.19H53.679V346.885C52.2317 349.352 49.5347 350.585 45.588 350.585C43.7671 350.628 41.9586 350.275 40.288 349.549C38.8939 348.945 37.7034 347.951 36.859 346.688C36.0645 345.454 35.6526 344.012 35.675 342.544C35.6309 341.42 35.8615 340.303 36.3468 339.288C36.832 338.274 37.5574 337.393 38.46 336.722C40.318 335.308 43.1877 334.601 47.069 334.601H53.187C53.2322 333.883 53.1186 333.163 52.8544 332.494C52.5901 331.825 52.1816 331.222 51.658 330.728C50.3462 329.73 48.7139 329.247 47.07 329.371C45.6539 329.371 44.2467 329.596 42.901 330.037C41.6436 330.425 40.4657 331.034 39.423 331.837L36.66 326.46C38.2441 325.377 40.0033 324.576 41.86 324.092C43.8929 323.532 45.9923 323.25 48.101 323.254ZM47.509 345.405C48.7373 345.427 49.9481 345.111 51.009 344.492C52.0296 343.883 52.7994 342.929 53.18 341.803V339.09H47.904C44.7467 339.09 43.168 340.126 43.168 342.198C43.1532 342.654 43.2513 343.106 43.4535 343.515C43.6557 343.924 43.9558 344.276 44.327 344.541C45.2665 345.165 46.3829 345.468 47.509 345.405ZM67.589 323.644H75.236V334.004H86.78V323.644H94.48V350.186H86.78V340.274H75.236V350.19H67.589V323.644ZM101.827 323.644H109.474V334.004H121.018V323.644H128.718V350.186H121.018V340.274H109.474V350.19H101.827V323.644ZM150.027 332.13C153.48 332.163 156.095 332.936 157.871 334.449C158.777 335.263 159.487 336.272 159.949 337.4C160.41 338.528 160.611 339.745 160.535 340.961C160.607 342.26 160.372 343.558 159.849 344.749C159.326 345.941 158.53 346.992 157.526 347.819C155.52 349.43 152.675 350.236 148.991 350.236L136.065 350.187V323.644H143.712V332.134L150.027 332.13ZM163.397 323.644H171.044V350.186H163.397V323.644ZM148.297 344.759C149.507 344.87 150.715 344.537 151.697 343.822C152.106 343.451 152.426 342.992 152.631 342.479C152.836 341.966 152.922 341.413 152.881 340.862C152.926 340.335 152.844 339.805 152.643 339.315C152.441 338.826 152.125 338.392 151.722 338.05C150.705 337.386 149.506 337.058 148.293 337.113L143.705 337.064V344.764L148.297 344.759ZM195.116 350.186L189.294 342.046L183.275 350.186H174.888L185.1 336.816L175.237 323.644H183.871L189.495 331.39L195.267 323.644H203.457L193.59 336.623L203.852 350.19L195.116 350.186Z" fill="white"/>
</g>
<defs>
<clipPath id="clip0_8_8">
<rect width="300" height="356" fill="white"/>
</clipPath>
</defs>
</svg>
