<svg x="32" y="390" width="604" height="171" viewBox="0 0 604 171" fill="none" xmlns="http://www.w3.org/2000/svg">
<path d="M276.618 171H0V160.941H211.235C215.237 160.941 219.075 159.352 221.904 156.522C224.734 153.692 226.324 149.855 226.324 145.853C226.324 141.851 224.734 138.014 221.904 135.184C219.075 132.354 215.237 130.765 211.235 130.765H0V120.706H276.618C283.287 120.706 289.683 123.355 294.399 128.071C299.115 132.787 301.765 139.184 301.765 145.853C301.765 152.522 299.115 158.919 294.399 163.635C289.683 168.351 283.287 171 276.618 171V171ZM276.618 110.647H0V100.588H60.3529C64.3546 100.588 68.1923 98.9986 71.0219 96.169C73.8515 93.3394 75.4412 89.5017 75.4412 85.5C75.4412 81.4984 73.8515 77.6606 71.0219 74.831C68.1923 72.0014 64.3546 70.4118 60.3529 70.4118H0V60.3529H276.618C283.287 60.3529 289.683 63.0024 294.399 67.7183C299.115 72.4343 301.765 78.8306 301.765 85.5C301.765 92.1694 299.115 98.5657 294.399 103.282C289.683 107.998 283.287 110.647 276.618 110.647V110.647ZM276.618 50.2941H0V40.2353H135.794C139.796 40.2353 143.634 38.6456 146.463 35.8161C149.293 32.9865 150.882 29.1487 150.882 25.1471C150.882 21.1454 149.293 17.3077 146.463 14.4781C143.634 11.6485 139.796 10.0588 135.794 10.0588H0V0H276.618C282.419 0.00384216 288.041 2.01292 292.531 5.68691C297.021 9.3609 300.102 14.4739 301.254 20.1599C302.406 25.8459 301.557 31.7552 298.851 36.8869C296.145 42.0186 291.748 46.0572 286.406 48.3186C283.309 49.6289 279.98 50.3008 276.618 50.2941Z" fill="#BFEBA0"/>
<path d="M349.944 28.5178H345.921V38.641H338.176V11.9429H345.921V22.3145H350.089L357.332 11.9429H365.57L356.242 24.7458L366.222 38.641H357.09L349.944 28.5178ZM379.92 11.5456C384.055 11.5456 387.231 12.5297 389.447 14.4978C391.664 16.466 392.772 19.4354 392.772 23.4059V38.641H385.53V35.3166C384.074 37.7978 381.361 39.0383 377.391 39.0383C375.559 39.0817 373.74 38.7262 372.06 37.9963C370.657 37.3883 369.46 36.3892 368.611 35.1184C367.807 33.8778 367.388 32.4271 367.408 30.949C367.363 29.8185 367.596 28.6943 368.084 27.6738C368.573 26.6533 369.303 25.7674 370.211 25.0928C372.084 23.6685 374.972 22.9563 378.875 22.9563H385.029C385.074 22.2338 384.96 21.5102 384.694 20.8369C384.428 20.1636 384.017 19.5571 383.491 19.0605C382.17 18.0573 380.528 17.5731 378.875 17.6996C377.45 17.6999 376.035 17.926 374.681 18.3695C373.416 18.7595 372.231 19.3727 371.183 20.1801L368.403 14.7714C369.997 13.6823 371.766 12.8765 373.634 12.3895C375.681 11.8251 377.795 11.5412 379.918 11.5456H379.92ZM379.324 33.8269C380.56 33.8493 381.778 33.5316 382.845 32.9085C383.872 32.2955 384.646 31.3365 385.029 30.2037V27.4747H379.72C376.541 27.4747 374.952 28.5168 374.952 30.601C374.937 31.0595 375.036 31.5145 375.239 31.9257C375.442 32.3368 375.744 32.6914 376.118 32.9578C377.064 33.5864 378.188 33.8913 379.322 33.8269H379.324ZM421.951 18.295H412.919V38.641H405.229V18.295H396.195V11.9429H421.946L421.951 18.295ZM436.441 11.5456C440.577 11.5456 443.753 12.5297 445.969 14.4978C448.185 16.466 449.293 19.4354 449.293 23.4059V38.641H442.051V35.3166C440.595 37.7978 437.882 39.0383 433.913 39.0383C432.081 39.0817 430.262 38.7262 428.581 37.9963C427.179 37.3883 425.982 36.3892 425.132 35.1184C424.332 33.8768 423.916 32.4262 423.938 30.949C423.894 29.8185 424.126 28.6943 424.615 27.6738C425.103 26.6533 425.833 25.7674 426.742 25.0928C428.611 23.6705 431.497 22.9593 435.401 22.9593H441.555C441.601 22.2369 441.486 21.5133 441.221 20.8399C440.955 20.1666 440.544 19.5601 440.017 19.0635C438.698 18.0591 437.056 17.5735 435.402 17.6986C433.978 17.6989 432.562 17.925 431.209 18.3685C429.944 18.7585 428.759 19.3717 427.71 20.1791L424.931 14.7704C426.524 13.6813 428.294 12.8755 430.162 12.3885C432.207 11.8248 434.32 11.5412 436.441 11.5456ZM435.846 33.8269C437.081 33.8493 438.299 33.5316 439.366 32.9085C440.393 32.2955 441.167 31.3365 441.55 30.2037V27.4747H436.24C433.068 27.4747 431.482 28.5168 431.482 30.601C431.467 31.0595 431.566 31.5145 431.769 31.9257C431.973 32.3368 432.275 32.6914 432.648 32.9578C433.592 33.5849 434.714 33.8898 435.846 33.8269ZM481.65 11.9419V38.641H473.904V18.295H465.468L465.22 23.0096C465.155 25.9451 464.822 28.8685 464.227 31.7437C463.846 33.7533 462.958 35.6323 461.647 37.2026C461.014 37.8748 460.242 38.4008 459.385 38.7436C458.528 39.0864 457.606 39.2378 456.685 39.1872C455.324 39.1542 453.973 38.9542 452.661 38.5917L453.058 32.2396C453.437 32.2939 453.818 32.3275 454.2 32.3402C454.707 32.3712 455.212 32.271 455.669 32.0493C456.125 31.8276 456.517 31.492 456.805 31.0748C457.432 30.1012 457.831 28.9984 457.971 27.8489C458.207 26.129 458.356 24.3984 458.418 22.6636L458.815 11.9449L481.65 11.9419ZM501.598 39.0373C498.969 39.0807 496.37 38.4757 494.03 37.276C491.866 36.1642 490.055 34.4718 488.799 32.3885C487.526 30.2433 486.873 27.7865 486.913 25.292C486.873 22.7974 487.526 20.3406 488.799 18.1955C490.055 16.1121 491.866 14.4197 494.03 13.3079C496.37 12.1082 498.969 11.5032 501.598 11.5466C504.22 11.5011 506.812 12.1063 509.142 13.3079C511.297 14.4245 513.101 16.1162 514.353 18.1955C515.627 20.3406 516.28 22.7974 516.239 25.292C516.28 27.7865 515.627 30.2433 514.353 32.3885C513.101 34.4677 511.297 36.1595 509.142 37.276C506.812 38.4777 504.22 39.0828 501.598 39.0373ZM501.598 32.6852C502.509 32.7142 503.415 32.5499 504.258 32.2031C505.1 31.8564 505.86 31.335 506.486 30.6734C507.809 29.2015 508.496 27.2658 508.397 25.2889C508.496 23.3121 507.809 21.3763 506.486 19.9045C505.86 19.2429 505.1 18.7215 504.258 18.3747C503.415 18.028 502.509 17.8637 501.598 17.8927C500.684 17.8652 499.775 18.0301 498.928 18.3766C498.082 18.7232 497.318 19.2437 496.686 19.9045C496.023 20.6297 495.511 21.4789 495.179 22.4031C494.847 23.3273 494.701 24.3081 494.75 25.2889C494.701 26.2698 494.847 27.2506 495.179 28.1748C495.511 29.099 496.023 29.9482 496.686 30.6734C497.318 31.3343 498.082 31.855 498.928 32.2018C499.774 32.5485 500.684 32.7136 501.598 32.6862V32.6852ZM542.94 18.294H529.24V38.641H521.548V11.9429H542.934L542.94 18.294ZM349.944 88.9975H345.921V99.1217H338.176V72.4226H345.921V82.7942H350.089L357.332 72.4226H365.57L356.242 85.2265L366.222 99.1217H357.09L349.944 88.9975ZM379.92 72.0253C384.055 72.0253 387.231 73.0093 389.447 74.9775C391.664 76.9457 392.772 79.9151 392.772 83.8856V99.1217H385.53V95.7963C384.074 98.2774 381.361 99.518 377.391 99.518C375.559 99.5614 373.74 99.2058 372.06 98.4759C370.657 97.868 369.46 96.8688 368.611 95.5981C367.807 94.3577 367.389 92.9074 367.408 91.4297C367.363 90.2992 367.596 89.175 368.084 88.1545C368.573 87.134 369.303 86.2481 370.211 85.5735C372.084 84.1512 374.972 83.44 378.875 83.44H385.029C385.074 82.7175 384.96 81.9939 384.694 81.3206C384.428 80.6473 384.017 80.0408 383.491 79.5442C382.171 78.5396 380.529 78.0539 378.875 78.1792C377.45 78.1796 376.035 78.4057 374.681 78.8492C373.416 79.2392 372.231 79.8524 371.183 80.6598L368.405 75.2521C369.999 74.163 371.768 73.3572 373.636 72.8702C375.682 72.3059 377.795 72.022 379.918 72.0263L379.92 72.0253ZM379.324 94.3066C380.56 94.329 381.778 94.0113 382.845 93.3882C383.872 92.7752 384.646 91.8161 385.029 90.6834V87.9554H379.72C376.544 87.9554 374.956 88.9975 374.956 91.0817C374.941 91.5402 375.04 91.9952 375.243 92.4064C375.446 92.8175 375.748 93.1721 376.122 93.4385C377.067 94.0662 378.19 94.3711 379.322 94.3076L379.324 94.3066ZM421.951 78.7747H412.919V99.1217H405.229V78.7747H396.195V72.4226H421.946L421.951 78.7747ZM436.441 72.0253C440.577 72.0253 443.753 73.0093 445.969 74.9775C448.185 76.9457 449.293 79.9151 449.293 83.8856V99.1217H442.051V95.7963C440.595 98.2774 437.882 99.518 433.913 99.518C432.081 99.5614 430.262 99.2058 428.581 98.4759C427.179 97.868 425.982 96.8688 425.132 95.5981C424.332 94.3567 423.917 92.9065 423.938 91.4297C423.894 90.2992 424.126 89.175 424.615 88.1545C425.103 87.134 425.833 86.2481 426.742 85.5735C428.611 84.1512 431.497 83.44 435.401 83.44H441.555C441.601 82.7175 441.486 81.9939 441.221 81.3206C440.955 80.6473 440.544 80.0408 440.017 79.5442C438.698 78.5398 437.056 78.0542 435.402 78.1792C433.978 78.1796 432.562 78.4057 431.209 78.8492C429.944 79.2392 428.759 79.8524 427.71 80.6598L424.928 75.2521C426.521 74.163 428.291 73.3572 430.159 72.8702C432.205 72.3058 434.319 72.0219 436.441 72.0263V72.0253ZM435.846 94.3066C437.081 94.329 438.299 94.0113 439.366 93.3882C440.393 92.7752 441.167 91.8161 441.55 90.6834V87.9554H436.24C433.064 87.9554 431.476 88.9975 431.476 91.0817C431.461 91.5402 431.56 91.9952 431.763 92.4064C431.967 92.8175 432.269 93.1721 432.642 93.4385C433.588 94.0669 434.712 94.3718 435.846 94.3076V94.3066ZM481.65 72.4216V99.1217H473.904V78.7747H465.468L465.22 83.4893C465.155 86.4248 464.822 89.3482 464.227 92.2234C463.846 94.233 462.958 96.112 461.647 97.6823C461.014 98.3545 460.242 98.8804 459.385 99.2233C458.528 99.5661 457.606 99.7175 456.685 99.6669C455.324 99.6338 453.973 99.4339 452.661 99.0714L453.058 92.7193C453.437 92.7736 453.818 92.8072 454.2 92.8199C454.707 92.8508 455.212 92.7507 455.669 92.529C456.125 92.3073 456.517 91.9717 456.805 91.5545C457.432 90.5809 457.831 89.4781 457.971 88.3286C458.207 86.6087 458.356 84.8781 458.418 83.1433L458.815 72.4246L481.65 72.4216ZM501.599 99.517C498.97 99.5604 496.371 98.9554 494.031 97.7557C491.867 96.6439 490.056 94.9515 488.8 92.8681C487.527 90.723 486.874 88.2662 486.914 85.7716C486.874 83.2771 487.527 80.8203 488.8 78.6751C490.056 76.5918 491.867 74.8994 494.031 73.7876C496.381 72.6287 498.966 72.0259 501.586 72.0259C504.206 72.0259 506.791 72.6287 509.141 73.7876C511.296 74.9041 513.1 76.5959 514.352 78.6751C515.626 80.8203 516.279 83.2771 516.238 85.7716C516.279 88.2662 515.626 90.723 514.352 92.8681C513.1 94.9474 511.296 96.6391 509.141 97.7557C506.811 98.9575 504.22 99.563 501.598 99.518L501.599 99.517ZM501.599 93.1649C502.51 93.1939 503.416 93.0296 504.259 92.6828C505.101 92.3361 505.861 91.8147 506.487 91.1531C507.81 89.6812 508.497 87.7455 508.398 85.7686C508.497 83.7918 507.81 81.856 506.487 80.3841C505.861 79.7225 505.101 79.2012 504.259 78.8544C503.416 78.5077 502.51 78.3434 501.599 78.3724C500.685 78.3449 499.776 78.5098 498.929 78.8563C498.083 79.2029 497.319 79.7234 496.687 80.3841C496.024 81.1094 495.512 81.9586 495.18 82.8828C494.848 83.807 494.702 84.7878 494.751 85.7686C494.702 86.7495 494.848 87.7303 495.18 88.6545C495.512 89.5787 496.024 90.4279 496.687 91.1531C497.319 91.8141 498.082 92.3349 498.929 92.6818C499.775 93.0287 500.684 93.194 501.598 93.1669L501.599 93.1649ZM542.941 78.7737H529.24V99.1217H521.548V72.4226H542.934L542.941 78.7737ZM558.474 99.517C555.845 99.5604 553.246 98.9554 550.906 97.7557C548.742 96.6439 546.931 94.9515 545.675 92.8681C544.401 90.723 543.748 88.2662 543.789 85.7716C543.748 83.2771 544.401 80.8203 545.675 78.6751C546.931 76.5918 548.742 74.8994 550.906 73.7876C553.256 72.6287 555.841 72.0259 558.461 72.0259C561.081 72.0259 563.666 72.6287 566.016 73.7876C568.171 74.9041 569.975 76.5959 571.227 78.6751C572.5 80.8203 573.153 83.2771 573.113 85.7716C573.153 88.2662 572.5 90.723 571.227 92.8681C569.975 94.9474 568.171 96.6391 566.016 97.7557C563.685 98.9582 561.092 99.5637 558.469 99.518L558.474 99.517ZM558.474 93.1649C559.385 93.1939 560.291 93.0296 561.133 92.6828C561.976 92.3361 562.735 91.8147 563.362 91.1531C564.685 89.6812 565.372 87.7455 565.273 85.7686C565.372 83.7918 564.685 81.856 563.362 80.3841C562.735 79.7225 561.976 79.2012 561.133 78.8544C560.291 78.5077 559.385 78.3434 558.474 78.3724C557.56 78.3449 556.65 78.5098 555.804 78.8563C554.958 79.2029 554.193 79.7234 553.561 80.3841C552.899 81.1094 552.387 81.9586 552.055 82.8828C551.723 83.807 551.577 84.7878 551.626 85.7686C551.576 86.7495 551.721 87.7305 552.052 88.655C552.383 89.5795 552.895 90.4292 553.556 91.1551C554.188 91.8158 554.953 92.3364 555.799 92.6829C556.645 93.0295 557.555 93.1944 558.469 93.1669L558.474 93.1649ZM598.819 85.1752C601.962 86.234 603.533 88.3514 603.533 91.5273C603.583 92.6155 603.359 93.6987 602.882 94.6782C602.405 95.6577 601.691 96.5023 600.804 97.1351C598.985 98.4582 596.272 99.1197 592.666 99.1197H578.419V72.4226H592.065C594.798 72.2728 597.516 72.9006 599.906 74.2332C600.79 74.7501 601.519 75.4949 602.016 76.3897C602.514 77.2845 602.762 78.2965 602.735 79.3199C602.759 80.5622 602.404 81.7824 601.718 82.8184C600.994 83.8653 599.987 84.6837 598.814 85.1772L598.819 85.1752ZM585.514 83.3897H591.37C594.083 83.3897 595.439 82.4304 595.439 80.5119C595.439 78.6262 594.083 77.6833 591.37 77.6833H585.514V83.3897ZM592.015 93.8609C594.86 93.8609 596.283 92.8849 596.283 90.9328C596.317 90.5036 596.245 90.0726 596.071 89.6785C595.898 89.2843 595.63 88.9394 595.29 88.6746C594.345 88.1227 593.255 87.8718 592.164 87.9554H585.514V93.8609H592.015ZM368.112 153.25V165.359H360.912V159.602H342.154V165.359H334.958V153.25H336.049C337.704 153.217 338.844 152.241 339.469 150.322C340.214 147.655 340.614 144.903 340.66 142.134L341.012 132.899H364.289V153.245L368.112 153.25ZM347.662 142.679C347.61 144.908 347.402 147.13 347.041 149.329C346.853 150.782 346.24 152.146 345.28 153.252H356.544V139.255H347.811L347.662 142.679ZM383.342 132.507C387.477 132.507 390.653 133.491 392.869 135.459C395.086 137.427 396.194 140.396 396.195 144.366V159.601H388.953V156.277C387.497 158.758 384.784 159.999 380.814 159.999C378.982 160.042 377.163 159.687 375.483 158.957C374.08 158.349 372.883 157.35 372.034 156.079C371.234 154.837 370.82 153.387 370.843 151.91C370.798 150.78 371.03 149.656 371.518 148.635C372.007 147.615 372.736 146.729 373.644 146.054C375.513 144.632 378.4 143.921 382.304 143.921H388.458C388.503 143.198 388.389 142.475 388.123 141.801C387.857 141.128 387.446 140.521 386.92 140.025C385.6 139.021 383.958 138.535 382.305 138.66C380.88 138.66 379.465 138.886 378.111 139.33C376.846 139.72 375.662 140.333 374.613 141.14L371.833 135.732C373.427 134.643 375.196 133.837 377.064 133.35C379.109 132.786 381.221 132.503 383.342 132.507ZM382.746 154.788C383.982 154.811 385.2 154.493 386.267 153.87C387.294 153.257 388.068 152.298 388.451 151.165V148.436H383.144C379.968 148.436 378.38 149.478 378.38 151.562C378.365 152.021 378.464 152.476 378.667 152.887C378.87 153.298 379.172 153.653 379.546 153.919C380.491 154.547 381.614 154.852 382.746 154.788ZM402.944 132.899H410.636V143.32H422.248V132.899H429.994V159.597H422.248V149.627H410.636V159.601H402.944V132.899ZM437.384 132.899H445.076V143.32H456.688V132.899H464.433V159.597H456.688V149.627H445.076V159.601H437.384V132.899ZM485.867 141.435C489.341 141.468 491.971 142.246 493.757 143.768C494.669 144.587 495.383 145.602 495.848 146.736C496.312 147.87 496.513 149.095 496.437 150.318C496.509 151.625 496.273 152.93 495.747 154.128C495.221 155.327 494.421 156.385 493.41 157.216C491.393 158.837 488.531 159.648 484.825 159.648L471.823 159.598V132.899H479.515V141.439L485.867 141.435ZM499.316 132.899H507.008V159.597H499.316V132.899ZM484.127 154.138C485.344 154.25 486.559 153.915 487.547 153.196C487.959 152.823 488.28 152.361 488.487 151.845C488.693 151.329 488.779 150.773 488.738 150.219C488.783 149.688 488.701 149.155 488.499 148.663C488.296 148.171 487.978 147.734 487.572 147.39C486.55 146.722 485.343 146.392 484.123 146.447L479.508 146.398V154.143L484.127 154.138ZM531.222 159.597L525.365 151.409L519.311 159.597H510.875L521.147 146.149L511.226 132.899H519.91L525.567 140.691L531.373 132.899H539.612L529.687 145.955L540.009 159.601L531.222 159.597Z" fill="white"/>
</svg>
